<svg xmlns="http://www.w3.org/2000/svg" width="388.4" height="111.233" viewBox="0 0 388.4 111.233">
  <g id="グループ_4" data-name="グループ 4" transform="translate(-575.348 -36.003)">
    <g id="グループ_1" data-name="グループ 1" transform="translate(325 -183.05)">
      <path id="パス_16" data-name="パス 16" d="M321.584,33.874c-8.869-7.942-21.453-12.927-36.284-12.927a58.03,58.03,0,0,0-23.206,4.624c-2.15,1.011-2.846.777-3.368.632l-1.794-.5a60.54,60.54,0,0,0-8.2-1.879,44.518,44.518,0,0,0-7.225-.558,2.224,2.224,0,0,0-2.019,3c1.134,3.133,4.729,11.257,4.729,11.257a2.207,2.207,0,0,1-.266,2.506c-2.946,3.421-6.94,8.845-7.749,10.061l-1.167,1.753a2.235,2.235,0,0,1-1.391.942c-.992.212-1.919.426-2.974.671a3.722,3.722,0,0,0-1.591.647,2.539,2.539,0,0,0-.92,1.651c-.785,8.849-1.561,17.843.419,26.536a1.539,1.539,0,0,0,.372.817,1.829,1.829,0,0,0,.845.371,45.723,45.723,0,0,0,6.776,1.145c.753.07,2.311.153,2.993,1.4l.064.118c7.3,14.67,23.765,22.631,45.67,22.631,35.137,0,50.276-16.974,50.276-44.319a40.856,40.856,0,0,0-13.99-30.579Z" transform="translate(287.013 219.016)" fill="#fff"/>
      <path id="パス_17" data-name="パス 17" d="M337.686,57.654c.068-.061.777-.626.463-.4a8.24,8.24,0,0,1,.738-.472c.11-.062.887-.381.327-.183.234-.083.466-.163.707-.224.116-.029.232-.055.349-.077.271-.046.232-.043-.116.007a2.165,2.165,0,0,1,.755-.04c.154,0,.308.011.461.026-.275-.041-.278-.037-.01.01.12.026.238.055.356.089q.4.135-.172-.1a2.518,2.518,0,0,0,.568.319c.213.15.2.134-.043-.047.1.082.192.167.283.257a3.7,3.7,0,0,1,.26.285q-.27-.348-.052-.012c-.105-.288-.113-.306-.026-.053.061.271.066.235.014-.1a2.419,2.419,0,0,1,0,.351q.087-.524,0-.128c-.084.251-.069.218.048-.1q-.21.329.076-.066-.284.268.084-.027-.357.2.1.006c-.449.132.517.049-.1.016-.186-.01-.112,0,.221.026-.251-.079-.219-.057.1.068a2.268,2.268,0,0,1-.293-.172q.39.314.109.044.3.408.1.075c.118.26.129.245.033-.047q.027.4,0-.023c.014-.287.007-.284-.022.007a3.443,3.443,0,0,1,.118-.411c-.1.232-.09.217.038-.045a3.718,3.718,0,0,1,.223-.36q-.242.307.029-.006c.065-.059.71-.643.319-.333a8.335,8.335,0,0,1,.707-.485c.257-.165.912-.7,1.232-.682q-.487.2-.121.059c.1-.037.207-.072.311-.1q.323-.1.652-.171c.133-.03.892-.233.245-.061a4.046,4.046,0,0,1,.778-.064c.6-.032,1.2-.023,1.8,0a2.419,2.419,0,0,0,2.4-2.4,2.45,2.45,0,0,0-2.4-2.4,12.363,12.363,0,0,0-7.228,1.626,8.327,8.327,0,0,0-3.2,3.17,5.6,5.6,0,0,0-.025,5.229,4.559,4.559,0,0,0,7.937-.2c1.5-3.111-.532-6.334-3.541-7.473-3.178-1.2-6.624.274-8.987,2.4a2.417,2.417,0,0,0,0,3.394,2.455,2.455,0,0,0,3.394,0Z" transform="translate(287.013 219.016)" fill="#211715"/>
      <path id="パス_18" data-name="パス 18" d="M259.43,105.114a4.041,4.041,0,0,0,1.251,2.453,8.625,8.625,0,0,0,1.176,1.172,9.525,9.525,0,0,0,3.532,1.922,12.344,12.344,0,0,0,7.15-.281,2.4,2.4,0,1,0-1.276-4.629,10.414,10.414,0,0,1-1.19.339l-.312.063c-.047.008-.568.08-.157.034.374-.043-.007,0-.083.007-.107.011-.215.02-.323.028a10.412,10.412,0,0,1-1.3.017c-.108-.006-.215-.013-.322-.022-.078-.006-.451-.058-.079,0s0,0-.073-.015c-.129-.022-.257-.047-.385-.075q-.3-.068-.6-.159c-.1-.03-.191-.066-.287-.1a1.083,1.083,0,1,0,.157.074c-.361-.243-.777-.414-1.142-.663-.31-.212.081,0,.079.063,0-.036-.225-.191-.258-.22-.188-.167-.368-.343-.54-.525-.149-.158-.285-.326-.428-.489-.208-.238.256.372.09.113-.067-.105-.144-.206-.213-.311l.328,1.212v-.011a2.4,2.4,0,1,0-4.8,0Z" transform="translate(287.013 219.016)" fill="#211715"/>
      <path id="パス_19" data-name="パス 19" d="M303.344,109.745a12.189,12.189,0,0,0,8.9.08,9.752,9.752,0,0,0,5.564-6.122,2.422,2.422,0,0,0-1.676-2.952,2.45,2.45,0,0,0-2.952,1.676c-.045.147-.1.292-.145.44-.089.319.184-.362.036-.075-.119.233-.23.466-.366.69-.073.12-.159.232-.231.353-.164.272.282-.325.074-.089-.162.184-.319.37-.493.543s-.356.322-.536.481c-.221.2.407-.283.046-.04-.087.058-.172.119-.259.176q-.324.211-.665.394c-.09.048-.182.091-.271.14-.365.2.388-.12.1-.04-.47.133-.927.264-1.4.373-.324.074.456-.038.116-.013-.15.011-.3.03-.451.039-.281.018-.563.023-.845.018s-.585-.028-.878-.051-.154.023.04.01a2.236,2.236,0,0,1-.5-.09,11.782,11.782,0,0,1-1.928-.569,2.409,2.409,0,0,0-2.952,1.676,2.467,2.467,0,0,0,1.676,2.952Z" transform="translate(287.013 219.016)" fill="#211715"/>
      <path id="パス_20" data-name="パス 20" d="M254.368,49.412c-2.512,0-4.248,2.245-4.248,4.87,0,3.04,1.646,4.96,4.252,4.959,2.667,0,4.249-1.922,4.248-4.962C258.619,51.636,256.872,49.411,254.368,49.412Z" transform="translate(287.013 219.016)" fill="#211715"/>
      <path id="パス_21" data-name="パス 21" d="M323.281,32.177c-9.636-8.561-22.141-12.958-34.93-13.559a62.789,62.789,0,0,0-21.515,2.641q-2.162.673-4.26,1.527c-.75.3-1.483.668-2.246.939a4.842,4.842,0,0,1-.838.233c.509-.08-.624-.221.216.018-2.058-.585-4.127-1.164-6.207-1.666a49.606,49.606,0,0,0-11.057-1.447c-1.861-.016-3.594.411-4.688,2.043a4.776,4.776,0,0,0-.443,4.366c.822,2.282,1.825,4.51,2.78,6.738q.584,1.361,1.176,2.718a10.81,10.81,0,0,1,.823,1.878c.058.281-.008-.035.019-.1a5.965,5.965,0,0,1-.97,1.161c-1.08,1.313-2.125,2.654-3.161,4-1.315,1.71-2.636,3.427-3.846,5.215-.238.351-.476.7-.7,1.059-.4.627-.483.543-1.258.715-1.636.363-3.5.581-4.785,1.753-1.563,1.42-1.621,3.285-1.79,5.246-.179,2.061-.347,4.123-.469,6.188a82.725,82.725,0,0,0,0,11.408c.143,1.789.365,3.576.67,5.344.346,2,.6,4.186,2.764,5a24.587,24.587,0,0,0,5.092,1.076c.818.119,1.639.225,2.461.309.558.058,1-.045,1.327.215.593.476,1.029,1.894,1.442,2.583a34.871,34.871,0,0,0,2.036,3.032c6.547,8.733,16.373,14.038,26.884,16.473a82.55,82.55,0,0,0,36.054,0c8.83-1.983,17.434-6.033,23.544-12.864,5.893-6.587,8.936-14.935,10.054-23.607A52.47,52.47,0,0,0,337.2,56.4a42.278,42.278,0,0,0-7.455-17.048,47.756,47.756,0,0,0-6.467-7.181c-2.287-2.066-5.692,1.318-3.394,3.394a40.1,40.1,0,0,1,11.14,16.34,43.241,43.241,0,0,1,1.933,18.051c-.711,8.709-3.637,17.488-9.623,23.8-6.7,7.056-16.194,10.453-25.919,11.843a85.471,85.471,0,0,1-19.341.464A58.232,58.232,0,0,1,260.3,101.85a38.7,38.7,0,0,1-13.167-9.042,32.439,32.439,0,0,1-4.558-6.249c-.751-1.331-1.3-2.71-2.7-3.511-1.42-.81-3.09-.771-4.663-.973-.849-.108-1.694-.253-2.533-.417a8.549,8.549,0,0,1-2.506-.623l.861.861c-.581-.772-.668-2.876-.819-3.987-.2-1.51-.323-3.033-.4-4.554a89.1,89.1,0,0,1,.116-9.515c.094-1.588.215-3.176.347-4.762.066-.792.129-1.584.205-2.376.042-.443-.033-.6.183-.763a6.34,6.34,0,0,1,1.951-.469,19.76,19.76,0,0,0,2-.469,6.344,6.344,0,0,0,3.155-2.938,112.178,112.178,0,0,1,6.763-9.007c.865-1.052,1.921-2.037,2.232-3.414a5.233,5.233,0,0,0-.506-3.4c-.486-1.111-.975-2.221-1.456-3.335-.748-1.728-1.452-3.373-2.154-5.1a23.261,23.261,0,0,1-.845-2.171c-.006-.02-.058-.051-.057-.045.053.2-1.045-.022.232.08.45.035.921,0,1.373.022,5.085.194,9.808,1.594,14.7,2.823,1.99.5,3.6-.155,5.424-.939a50.816,50.816,0,0,1,7.88-2.585,59.377,59.377,0,0,1,17.424-1.544c11.317.611,22.567,4.544,31.106,12.131C322.189,37.617,325.6,34.234,323.281,32.177Z" transform="translate(287.013 219.016)" fill="#211715"/>
      <path id="パス_22" data-name="パス 22" d="M271.541,12.625A22.9,22.9,0,0,0,267.7,25.371a22.257,22.257,0,0,0,1.213,7.3c11.6-2.626,29.132-1.632,41.729,4.17a23.007,23.007,0,0,0-39.1-24.214Z" transform="translate(287.013 219.016)" fill="#ff9f1f"/>
      <path id="パス_23" data-name="パス 23" d="M270.622,29.967a20.611,20.611,0,1,1,38.814,4.012,2.469,2.469,0,0,0,.861,3.283,2.419,2.419,0,0,0,3.284-.861A25.421,25.421,0,0,0,302.806,3.016a25.694,25.694,0,0,0-32.687,7.473,25.543,25.543,0,0,0-4.125,20.754c.687,3.011,5.316,1.736,4.628-1.276Z" transform="translate(287.013 219.016)" fill="#211715"/>
      <path id="パス_24" data-name="パス 24" d="M298.366,16.311l.139.058-.574-.242a8.035,8.035,0,0,1,1.678.987l-.486-.375a8.95,8.95,0,0,1,1.569,1.579l-.375-.485a10.774,10.774,0,0,1,1.343,2.329l-.241-.574c.054.132.107.264.158.4a2.6,2.6,0,0,0,1.1,1.434,2.451,2.451,0,0,0,1.85.242,2.425,2.425,0,0,0,1.434-1.1,2.343,2.343,0,0,0,.242-1.849,13.513,13.513,0,0,0-2.6-4.354,11.272,11.272,0,0,0-1.82-1.565,10.421,10.421,0,0,0-2.148-1.107,2.4,2.4,0,0,0-2.71,3.525l.375.486a2.387,2.387,0,0,0,1.059.617Z" transform="translate(287.013 219.016)" fill="#211715"/>
      <path id="パス_25" data-name="パス 25" d="M316.622,37.355a54.932,54.932,0,0,0-19.936-7.209,78.6,78.6,0,0,0-20.969-.94,50.767,50.767,0,0,0-11.33,2.231c-2.913.977-1.664,5.615,1.276,4.629A54.628,54.628,0,0,1,284.21,33.71a70.706,70.706,0,0,1,19.876,3.169A43.334,43.334,0,0,1,314.2,41.5c2.618,1.657,5.029-2.495,2.423-4.145Z" transform="translate(287.013 219.016)" fill="#211715"/>
    </g>
    <g id="グループ_2" data-name="グループ 2" transform="translate(194.2 -183.05)">
      <path id="パス_16-2" data-name="パス 16" d="M321.584,33.874c-8.869-7.942-21.453-12.927-36.284-12.927a58.03,58.03,0,0,0-23.206,4.624c-2.15,1.011-2.846.777-3.368.632l-1.794-.5a60.54,60.54,0,0,0-8.2-1.879,44.518,44.518,0,0,0-7.225-.558,2.224,2.224,0,0,0-2.019,3c1.134,3.133,4.729,11.257,4.729,11.257a2.207,2.207,0,0,1-.266,2.506c-2.946,3.421-6.94,8.845-7.749,10.061l-1.167,1.753a2.235,2.235,0,0,1-1.391.942c-.992.212-1.919.426-2.974.671a3.722,3.722,0,0,0-1.591.647,2.539,2.539,0,0,0-.92,1.651c-.785,8.849-1.561,17.843.419,26.536a1.539,1.539,0,0,0,.372.817,1.829,1.829,0,0,0,.845.371,45.723,45.723,0,0,0,6.776,1.145c.753.07,2.311.153,2.993,1.4l.064.118c7.3,14.67,23.765,22.631,45.67,22.631,35.137,0,50.276-16.974,50.276-44.319a40.856,40.856,0,0,0-13.99-30.579Z" transform="translate(287.013 219.016)" fill="#fff"/>
      <path id="パス_17-2" data-name="パス 17" d="M337.686,57.654c.068-.061.777-.626.463-.4a8.24,8.24,0,0,1,.738-.472c.11-.062.887-.381.327-.183.234-.083.466-.163.707-.224.116-.029.232-.055.349-.077.271-.046.232-.043-.116.007a2.165,2.165,0,0,1,.755-.04c.154,0,.308.011.461.026-.275-.041-.278-.037-.01.01.12.026.238.055.356.089q.4.135-.172-.1a2.518,2.518,0,0,0,.568.319c.213.15.2.134-.043-.047.1.082.192.167.283.257a3.7,3.7,0,0,1,.26.285q-.27-.348-.052-.012c-.105-.288-.113-.306-.026-.053.061.271.066.235.014-.1a2.419,2.419,0,0,1,0,.351q.087-.524,0-.128c-.084.251-.069.218.048-.1q-.21.329.076-.066-.284.268.084-.027-.357.2.1.006c-.449.132.517.049-.1.016-.186-.01-.112,0,.221.026-.251-.079-.219-.057.1.068a2.268,2.268,0,0,1-.293-.172q.39.314.109.044.3.408.1.075c.118.26.129.245.033-.047q.027.4,0-.023c.014-.287.007-.284-.022.007a3.443,3.443,0,0,1,.118-.411c-.1.232-.09.217.038-.045a3.718,3.718,0,0,1,.223-.36q-.242.307.029-.006c.065-.059.71-.643.319-.333a8.335,8.335,0,0,1,.707-.485c.257-.165.912-.7,1.232-.682q-.487.2-.121.059c.1-.037.207-.072.311-.1q.323-.1.652-.171c.133-.03.892-.233.245-.061a4.046,4.046,0,0,1,.778-.064c.6-.032,1.2-.023,1.8,0a2.419,2.419,0,0,0,2.4-2.4,2.45,2.45,0,0,0-2.4-2.4,12.363,12.363,0,0,0-7.228,1.626,8.327,8.327,0,0,0-3.2,3.17,5.6,5.6,0,0,0-.025,5.229,4.559,4.559,0,0,0,7.937-.2c1.5-3.111-.532-6.334-3.541-7.473-3.178-1.2-6.624.274-8.987,2.4a2.417,2.417,0,0,0,0,3.394,2.455,2.455,0,0,0,3.394,0Z" transform="translate(287.013 219.016)" fill="#211715"/>
      <path id="パス_18-2" data-name="パス 18" d="M259.43,105.114a4.041,4.041,0,0,0,1.251,2.453,8.625,8.625,0,0,0,1.176,1.172,9.525,9.525,0,0,0,3.532,1.922,12.344,12.344,0,0,0,7.15-.281,2.4,2.4,0,1,0-1.276-4.629,10.414,10.414,0,0,1-1.19.339l-.312.063c-.047.008-.568.08-.157.034.374-.043-.007,0-.083.007-.107.011-.215.02-.323.028a10.412,10.412,0,0,1-1.3.017c-.108-.006-.215-.013-.322-.022-.078-.006-.451-.058-.079,0s0,0-.073-.015c-.129-.022-.257-.047-.385-.075q-.3-.068-.6-.159c-.1-.03-.191-.066-.287-.1a1.083,1.083,0,1,0,.157.074c-.361-.243-.777-.414-1.142-.663-.31-.212.081,0,.079.063,0-.036-.225-.191-.258-.22-.188-.167-.368-.343-.54-.525-.149-.158-.285-.326-.428-.489-.208-.238.256.372.09.113-.067-.105-.144-.206-.213-.311l.328,1.212v-.011a2.4,2.4,0,1,0-4.8,0Z" transform="translate(287.013 219.016)" fill="#211715"/>
      <path id="パス_19-2" data-name="パス 19" d="M303.344,109.745a12.189,12.189,0,0,0,8.9.08,9.752,9.752,0,0,0,5.564-6.122,2.422,2.422,0,0,0-1.676-2.952,2.45,2.45,0,0,0-2.952,1.676c-.045.147-.1.292-.145.44-.089.319.184-.362.036-.075-.119.233-.23.466-.366.69-.073.12-.159.232-.231.353-.164.272.282-.325.074-.089-.162.184-.319.37-.493.543s-.356.322-.536.481c-.221.2.407-.283.046-.04-.087.058-.172.119-.259.176q-.324.211-.665.394c-.09.048-.182.091-.271.14-.365.2.388-.12.1-.04-.47.133-.927.264-1.4.373-.324.074.456-.038.116-.013-.15.011-.3.03-.451.039-.281.018-.563.023-.845.018s-.585-.028-.878-.051-.154.023.04.01a2.236,2.236,0,0,1-.5-.09,11.782,11.782,0,0,1-1.928-.569,2.409,2.409,0,0,0-2.952,1.676,2.467,2.467,0,0,0,1.676,2.952Z" transform="translate(287.013 219.016)" fill="#211715"/>
      <path id="パス_20-2" data-name="パス 20" d="M254.368,49.412c-2.512,0-4.248,2.245-4.248,4.87,0,3.04,1.646,4.96,4.252,4.959,2.667,0,4.249-1.922,4.248-4.962C258.619,51.636,256.872,49.411,254.368,49.412Z" transform="translate(287.013 219.016)" fill="#211715"/>
      <path id="パス_21-2" data-name="パス 21" d="M323.281,32.177c-9.636-8.561-22.141-12.958-34.93-13.559a62.789,62.789,0,0,0-21.515,2.641q-2.162.673-4.26,1.527c-.75.3-1.483.668-2.246.939a4.842,4.842,0,0,1-.838.233c.509-.08-.624-.221.216.018-2.058-.585-4.127-1.164-6.207-1.666a49.606,49.606,0,0,0-11.057-1.447c-1.861-.016-3.594.411-4.688,2.043a4.776,4.776,0,0,0-.443,4.366c.822,2.282,1.825,4.51,2.78,6.738q.584,1.361,1.176,2.718a10.81,10.81,0,0,1,.823,1.878c.058.281-.008-.035.019-.1a5.965,5.965,0,0,1-.97,1.161c-1.08,1.313-2.125,2.654-3.161,4-1.315,1.71-2.636,3.427-3.846,5.215-.238.351-.476.7-.7,1.059-.4.627-.483.543-1.258.715-1.636.363-3.5.581-4.785,1.753-1.563,1.42-1.621,3.285-1.79,5.246-.179,2.061-.347,4.123-.469,6.188a82.725,82.725,0,0,0,0,11.408c.143,1.789.365,3.576.67,5.344.346,2,.6,4.186,2.764,5a24.587,24.587,0,0,0,5.092,1.076c.818.119,1.639.225,2.461.309.558.058,1-.045,1.327.215.593.476,1.029,1.894,1.442,2.583a34.871,34.871,0,0,0,2.036,3.032c6.547,8.733,16.373,14.038,26.884,16.473a82.55,82.55,0,0,0,36.054,0c8.83-1.983,17.434-6.033,23.544-12.864,5.893-6.587,8.936-14.935,10.054-23.607A52.47,52.47,0,0,0,337.2,56.4a42.278,42.278,0,0,0-7.455-17.048,47.756,47.756,0,0,0-6.467-7.181c-2.287-2.066-5.692,1.318-3.394,3.394a40.1,40.1,0,0,1,11.14,16.34,43.241,43.241,0,0,1,1.933,18.051c-.711,8.709-3.637,17.488-9.623,23.8-6.7,7.056-16.194,10.453-25.919,11.843a85.471,85.471,0,0,1-19.341.464A58.232,58.232,0,0,1,260.3,101.85a38.7,38.7,0,0,1-13.167-9.042,32.439,32.439,0,0,1-4.558-6.249c-.751-1.331-1.3-2.71-2.7-3.511-1.42-.81-3.09-.771-4.663-.973-.849-.108-1.694-.253-2.533-.417a8.549,8.549,0,0,1-2.506-.623l.861.861c-.581-.772-.668-2.876-.819-3.987-.2-1.51-.323-3.033-.4-4.554a89.1,89.1,0,0,1,.116-9.515c.094-1.588.215-3.176.347-4.762.066-.792.129-1.584.205-2.376.042-.443-.033-.6.183-.763a6.34,6.34,0,0,1,1.951-.469,19.76,19.76,0,0,0,2-.469,6.344,6.344,0,0,0,3.155-2.938,112.178,112.178,0,0,1,6.763-9.007c.865-1.052,1.921-2.037,2.232-3.414a5.233,5.233,0,0,0-.506-3.4c-.486-1.111-.975-2.221-1.456-3.335-.748-1.728-1.452-3.373-2.154-5.1a23.261,23.261,0,0,1-.845-2.171c-.006-.02-.058-.051-.057-.045.053.2-1.045-.022.232.08.45.035.921,0,1.373.022,5.085.194,9.808,1.594,14.7,2.823,1.99.5,3.6-.155,5.424-.939a50.816,50.816,0,0,1,7.88-2.585,59.377,59.377,0,0,1,17.424-1.544c11.317.611,22.567,4.544,31.106,12.131C322.189,37.617,325.6,34.234,323.281,32.177Z" transform="translate(287.013 219.016)" fill="#211715"/>
      <path id="パス_22-2" data-name="パス 22" d="M271.541,12.625A22.9,22.9,0,0,0,267.7,25.371a22.257,22.257,0,0,0,1.213,7.3c11.6-2.626,29.132-1.632,41.729,4.17a23.007,23.007,0,0,0-39.1-24.214Z" transform="translate(287.013 219.016)" fill="#febe69"/>
      <path id="パス_23-2" data-name="パス 23" d="M270.622,29.967a20.611,20.611,0,1,1,38.814,4.012,2.469,2.469,0,0,0,.861,3.283,2.419,2.419,0,0,0,3.284-.861A25.421,25.421,0,0,0,302.806,3.016a25.694,25.694,0,0,0-32.687,7.473,25.543,25.543,0,0,0-4.125,20.754c.687,3.011,5.316,1.736,4.628-1.276Z" transform="translate(287.013 219.016)" fill="#211715"/>
      <path id="パス_24-2" data-name="パス 24" d="M298.366,16.311l.139.058-.574-.242a8.035,8.035,0,0,1,1.678.987l-.486-.375a8.95,8.95,0,0,1,1.569,1.579l-.375-.485a10.774,10.774,0,0,1,1.343,2.329l-.241-.574c.054.132.107.264.158.4a2.6,2.6,0,0,0,1.1,1.434,2.451,2.451,0,0,0,1.85.242,2.425,2.425,0,0,0,1.434-1.1,2.343,2.343,0,0,0,.242-1.849,13.513,13.513,0,0,0-2.6-4.354,11.272,11.272,0,0,0-1.82-1.565,10.421,10.421,0,0,0-2.148-1.107,2.4,2.4,0,0,0-2.71,3.525l.375.486a2.387,2.387,0,0,0,1.059.617Z" transform="translate(287.013 219.016)" fill="#211715"/>
      <path id="パス_25-2" data-name="パス 25" d="M316.622,37.355a54.932,54.932,0,0,0-19.936-7.209,78.6,78.6,0,0,0-20.969-.94,50.767,50.767,0,0,0-11.33,2.231c-2.913.977-1.664,5.615,1.276,4.629A54.628,54.628,0,0,1,284.21,33.71a70.706,70.706,0,0,1,19.876,3.169A43.334,43.334,0,0,1,314.2,41.5c2.618,1.657,5.029-2.495,2.423-4.145Z" transform="translate(287.013 219.016)" fill="#211715"/>
    </g>
    <g id="グループ_3" data-name="グループ 3" transform="translate(63.4 -183.05)">
      <path id="パス_16-3" data-name="パス 16" d="M321.584,33.874c-8.869-7.942-21.453-12.927-36.284-12.927a58.03,58.03,0,0,0-23.206,4.624c-2.15,1.011-2.846.777-3.368.632l-1.794-.5a60.54,60.54,0,0,0-8.2-1.879,44.518,44.518,0,0,0-7.225-.558,2.224,2.224,0,0,0-2.019,3c1.134,3.133,4.729,11.257,4.729,11.257a2.207,2.207,0,0,1-.266,2.506c-2.946,3.421-6.94,8.845-7.749,10.061l-1.167,1.753a2.235,2.235,0,0,1-1.391.942c-.992.212-1.919.426-2.974.671a3.722,3.722,0,0,0-1.591.647,2.539,2.539,0,0,0-.92,1.651c-.785,8.849-1.561,17.843.419,26.536a1.539,1.539,0,0,0,.372.817,1.829,1.829,0,0,0,.845.371,45.723,45.723,0,0,0,6.776,1.145c.753.07,2.311.153,2.993,1.4l.064.118c7.3,14.67,23.765,22.631,45.67,22.631,35.137,0,50.276-16.974,50.276-44.319a40.856,40.856,0,0,0-13.99-30.579Z" transform="translate(287.013 219.016)" fill="#fff"/>
      <path id="パス_17-3" data-name="パス 17" d="M337.686,57.654c.068-.061.777-.626.463-.4a8.24,8.24,0,0,1,.738-.472c.11-.062.887-.381.327-.183.234-.083.466-.163.707-.224.116-.029.232-.055.349-.077.271-.046.232-.043-.116.007a2.165,2.165,0,0,1,.755-.04c.154,0,.308.011.461.026-.275-.041-.278-.037-.01.01.12.026.238.055.356.089q.4.135-.172-.1a2.518,2.518,0,0,0,.568.319c.213.15.2.134-.043-.047.1.082.192.167.283.257a3.7,3.7,0,0,1,.26.285q-.27-.348-.052-.012c-.105-.288-.113-.306-.026-.053.061.271.066.235.014-.1a2.419,2.419,0,0,1,0,.351q.087-.524,0-.128c-.084.251-.069.218.048-.1q-.21.329.076-.066-.284.268.084-.027-.357.2.1.006c-.449.132.517.049-.1.016-.186-.01-.112,0,.221.026-.251-.079-.219-.057.1.068a2.268,2.268,0,0,1-.293-.172q.39.314.109.044.3.408.1.075c.118.26.129.245.033-.047q.027.4,0-.023c.014-.287.007-.284-.022.007a3.443,3.443,0,0,1,.118-.411c-.1.232-.09.217.038-.045a3.718,3.718,0,0,1,.223-.36q-.242.307.029-.006c.065-.059.71-.643.319-.333a8.335,8.335,0,0,1,.707-.485c.257-.165.912-.7,1.232-.682q-.487.2-.121.059c.1-.037.207-.072.311-.1q.323-.1.652-.171c.133-.03.892-.233.245-.061a4.046,4.046,0,0,1,.778-.064c.6-.032,1.2-.023,1.8,0a2.419,2.419,0,0,0,2.4-2.4,2.45,2.45,0,0,0-2.4-2.4,12.363,12.363,0,0,0-7.228,1.626,8.327,8.327,0,0,0-3.2,3.17,5.6,5.6,0,0,0-.025,5.229,4.559,4.559,0,0,0,7.937-.2c1.5-3.111-.532-6.334-3.541-7.473-3.178-1.2-6.624.274-8.987,2.4a2.417,2.417,0,0,0,0,3.394,2.455,2.455,0,0,0,3.394,0Z" transform="translate(287.013 219.016)" fill="#211715"/>
      <path id="パス_18-3" data-name="パス 18" d="M259.43,105.114a4.041,4.041,0,0,0,1.251,2.453,8.625,8.625,0,0,0,1.176,1.172,9.525,9.525,0,0,0,3.532,1.922,12.344,12.344,0,0,0,7.15-.281,2.4,2.4,0,1,0-1.276-4.629,10.414,10.414,0,0,1-1.19.339l-.312.063c-.047.008-.568.08-.157.034.374-.043-.007,0-.083.007-.107.011-.215.02-.323.028a10.412,10.412,0,0,1-1.3.017c-.108-.006-.215-.013-.322-.022-.078-.006-.451-.058-.079,0s0,0-.073-.015c-.129-.022-.257-.047-.385-.075q-.3-.068-.6-.159c-.1-.03-.191-.066-.287-.1a1.083,1.083,0,1,0,.157.074c-.361-.243-.777-.414-1.142-.663-.31-.212.081,0,.079.063,0-.036-.225-.191-.258-.22-.188-.167-.368-.343-.54-.525-.149-.158-.285-.326-.428-.489-.208-.238.256.372.09.113-.067-.105-.144-.206-.213-.311l.328,1.212v-.011a2.4,2.4,0,1,0-4.8,0Z" transform="translate(287.013 219.016)" fill="#211715"/>
      <path id="パス_19-3" data-name="パス 19" d="M303.344,109.745a12.189,12.189,0,0,0,8.9.08,9.752,9.752,0,0,0,5.564-6.122,2.422,2.422,0,0,0-1.676-2.952,2.45,2.45,0,0,0-2.952,1.676c-.045.147-.1.292-.145.44-.089.319.184-.362.036-.075-.119.233-.23.466-.366.69-.073.12-.159.232-.231.353-.164.272.282-.325.074-.089-.162.184-.319.37-.493.543s-.356.322-.536.481c-.221.2.407-.283.046-.04-.087.058-.172.119-.259.176q-.324.211-.665.394c-.09.048-.182.091-.271.14-.365.2.388-.12.1-.04-.47.133-.927.264-1.4.373-.324.074.456-.038.116-.013-.15.011-.3.03-.451.039-.281.018-.563.023-.845.018s-.585-.028-.878-.051-.154.023.04.01a2.236,2.236,0,0,1-.5-.09,11.782,11.782,0,0,1-1.928-.569,2.409,2.409,0,0,0-2.952,1.676,2.467,2.467,0,0,0,1.676,2.952Z" transform="translate(287.013 219.016)" fill="#211715"/>
      <path id="パス_20-3" data-name="パス 20" d="M254.368,49.412c-2.512,0-4.248,2.245-4.248,4.87,0,3.04,1.646,4.96,4.252,4.959,2.667,0,4.249-1.922,4.248-4.962C258.619,51.636,256.872,49.411,254.368,49.412Z" transform="translate(287.013 219.016)" fill="#211715"/>
      <path id="パス_21-3" data-name="パス 21" d="M323.281,32.177c-9.636-8.561-22.141-12.958-34.93-13.559a62.789,62.789,0,0,0-21.515,2.641q-2.162.673-4.26,1.527c-.75.3-1.483.668-2.246.939a4.842,4.842,0,0,1-.838.233c.509-.08-.624-.221.216.018-2.058-.585-4.127-1.164-6.207-1.666a49.606,49.606,0,0,0-11.057-1.447c-1.861-.016-3.594.411-4.688,2.043a4.776,4.776,0,0,0-.443,4.366c.822,2.282,1.825,4.51,2.78,6.738q.584,1.361,1.176,2.718a10.81,10.81,0,0,1,.823,1.878c.058.281-.008-.035.019-.1a5.965,5.965,0,0,1-.97,1.161c-1.08,1.313-2.125,2.654-3.161,4-1.315,1.71-2.636,3.427-3.846,5.215-.238.351-.476.7-.7,1.059-.4.627-.483.543-1.258.715-1.636.363-3.5.581-4.785,1.753-1.563,1.42-1.621,3.285-1.79,5.246-.179,2.061-.347,4.123-.469,6.188a82.725,82.725,0,0,0,0,11.408c.143,1.789.365,3.576.67,5.344.346,2,.6,4.186,2.764,5a24.587,24.587,0,0,0,5.092,1.076c.818.119,1.639.225,2.461.309.558.058,1-.045,1.327.215.593.476,1.029,1.894,1.442,2.583a34.871,34.871,0,0,0,2.036,3.032c6.547,8.733,16.373,14.038,26.884,16.473a82.55,82.55,0,0,0,36.054,0c8.83-1.983,17.434-6.033,23.544-12.864,5.893-6.587,8.936-14.935,10.054-23.607A52.47,52.47,0,0,0,337.2,56.4a42.278,42.278,0,0,0-7.455-17.048,47.756,47.756,0,0,0-6.467-7.181c-2.287-2.066-5.692,1.318-3.394,3.394a40.1,40.1,0,0,1,11.14,16.34,43.241,43.241,0,0,1,1.933,18.051c-.711,8.709-3.637,17.488-9.623,23.8-6.7,7.056-16.194,10.453-25.919,11.843a85.471,85.471,0,0,1-19.341.464A58.232,58.232,0,0,1,260.3,101.85a38.7,38.7,0,0,1-13.167-9.042,32.439,32.439,0,0,1-4.558-6.249c-.751-1.331-1.3-2.71-2.7-3.511-1.42-.81-3.09-.771-4.663-.973-.849-.108-1.694-.253-2.533-.417a8.549,8.549,0,0,1-2.506-.623l.861.861c-.581-.772-.668-2.876-.819-3.987-.2-1.51-.323-3.033-.4-4.554a89.1,89.1,0,0,1,.116-9.515c.094-1.588.215-3.176.347-4.762.066-.792.129-1.584.205-2.376.042-.443-.033-.6.183-.763a6.34,6.34,0,0,1,1.951-.469,19.76,19.76,0,0,0,2-.469,6.344,6.344,0,0,0,3.155-2.938,112.178,112.178,0,0,1,6.763-9.007c.865-1.052,1.921-2.037,2.232-3.414a5.233,5.233,0,0,0-.506-3.4c-.486-1.111-.975-2.221-1.456-3.335-.748-1.728-1.452-3.373-2.154-5.1a23.261,23.261,0,0,1-.845-2.171c-.006-.02-.058-.051-.057-.045.053.2-1.045-.022.232.08.45.035.921,0,1.373.022,5.085.194,9.808,1.594,14.7,2.823,1.99.5,3.6-.155,5.424-.939a50.816,50.816,0,0,1,7.88-2.585,59.377,59.377,0,0,1,17.424-1.544c11.317.611,22.567,4.544,31.106,12.131C322.189,37.617,325.6,34.234,323.281,32.177Z" transform="translate(287.013 219.016)" fill="#211715"/>
      <path id="パス_22-3" data-name="パス 22" d="M271.541,12.625A22.9,22.9,0,0,0,267.7,25.371a22.257,22.257,0,0,0,1.213,7.3c11.6-2.626,29.132-1.632,41.729,4.17a23.007,23.007,0,0,0-39.1-24.214Z" transform="translate(287.013 219.016)" fill="#ffe3a3"/>
      <path id="パス_23-3" data-name="パス 23" d="M270.622,29.967a20.611,20.611,0,1,1,38.814,4.012,2.469,2.469,0,0,0,.861,3.283,2.419,2.419,0,0,0,3.284-.861A25.421,25.421,0,0,0,302.806,3.016a25.694,25.694,0,0,0-32.687,7.473,25.543,25.543,0,0,0-4.125,20.754c.687,3.011,5.316,1.736,4.628-1.276Z" transform="translate(287.013 219.016)" fill="#211715"/>
      <path id="パス_24-3" data-name="パス 24" d="M298.366,16.311l.139.058-.574-.242a8.035,8.035,0,0,1,1.678.987l-.486-.375a8.95,8.95,0,0,1,1.569,1.579l-.375-.485a10.774,10.774,0,0,1,1.343,2.329l-.241-.574c.054.132.107.264.158.4a2.6,2.6,0,0,0,1.1,1.434,2.451,2.451,0,0,0,1.85.242,2.425,2.425,0,0,0,1.434-1.1,2.343,2.343,0,0,0,.242-1.849,13.513,13.513,0,0,0-2.6-4.354,11.272,11.272,0,0,0-1.82-1.565,10.421,10.421,0,0,0-2.148-1.107,2.4,2.4,0,0,0-2.71,3.525l.375.486a2.387,2.387,0,0,0,1.059.617Z" transform="translate(287.013 219.016)" fill="#211715"/>
      <path id="パス_25-3" data-name="パス 25" d="M316.622,37.355a54.932,54.932,0,0,0-19.936-7.209,78.6,78.6,0,0,0-20.969-.94,50.767,50.767,0,0,0-11.33,2.231c-2.913.977-1.664,5.615,1.276,4.629A54.628,54.628,0,0,1,284.21,33.71a70.706,70.706,0,0,1,19.876,3.169A43.334,43.334,0,0,1,314.2,41.5c2.618,1.657,5.029-2.495,2.423-4.145Z" transform="translate(287.013 219.016)" fill="#211715"/>
    </g>
  </g>
</svg>
